<svg width="46" height="46" viewBox="0 0 46 46" fill="none" xmlns="http://www.w3.org/2000/svg">
<path d="M38.3333 23V36.25C38.3333 38.1356 38.3333 39.0784 37.7475 39.6642C37.1618 40.25 36.219 40.25 34.3333 40.25H12.4583C10.786 40.25 9.94989 40.25 9.31053 39.926C8.74143 39.6376 8.27909 39.1752 7.99068 38.6061C7.66667 37.9668 7.66667 37.1306 7.66667 35.4583V35.4583C7.66667 33.786 7.66667 32.9499 7.99068 32.3105C8.27909 31.7414 8.74143 31.2791 9.31053 30.9907C9.94989 30.6667 10.786 30.6667 12.4583 30.6667H34.3333C36.219 30.6667 37.1618 30.6667 37.7475 30.0809C38.3333 29.4951 38.3333 28.5523 38.3333 26.6667V9.75C38.3333 7.86438 38.3333 6.92157 37.7475 6.33579C37.1618 5.75 36.219 5.75 34.3333 5.75H11.6667C9.78105 5.75 8.83824 5.75 8.25245 6.33579C7.66667 6.92157 7.66667 7.86438 7.66667 9.75V35.4583" stroke="white" stroke-width="2"/>
<path d="M17.25 15.3334L28.75 15.3334" stroke="white" stroke-width="2" stroke-linecap="round"/>
</svg>
