<svg width="46" height="46" viewBox="0 0 46 46" fill="none" xmlns="http://www.w3.org/2000/svg">
<path d="M31.625 22.0416V27.7916" stroke="white" stroke-width="2" stroke-linecap="round"/>
<path d="M16.2917 22.0416V27.7916" stroke="white" stroke-width="2" stroke-linecap="round"/>
<path d="M22.0417 8.625V14.375" stroke="white" stroke-width="2" stroke-linecap="round"/>
<path d="M12.4583 10.425C12.4583 9.43089 13.2642 8.625 14.2583 8.625H29.825C30.8191 8.625 31.625 9.43089 31.625 10.425V22.0417H14.2583C13.2642 22.0417 12.4583 21.2358 12.4583 20.2417V10.425Z" stroke="white" stroke-width="2"/>
<path d="M8.625 23.8416C8.625 22.8475 9.43089 22.0416 10.425 22.0416H23.9583V37.375H10.425C9.43089 37.375 8.625 36.5691 8.625 35.575V23.8416Z" stroke="white" stroke-width="2"/>
<path d="M23.9583 22.0416H37.4917C38.4858 22.0416 39.2917 22.8475 39.2917 23.8416V35.575C39.2917 36.5691 38.4858 37.375 37.4917 37.375H23.9583V22.0416Z" stroke="white" stroke-width="2"/>
</svg>
