<svg width="46" height="46" viewBox="0 0 46 46" fill="none" xmlns="http://www.w3.org/2000/svg">
<path d="M23 38.3333L8.34637 20.0163C8.01385 19.6006 7.84759 19.3928 7.80292 19.1423C7.75825 18.8919 7.84241 18.6394 8.01074 18.1344L10.5883 10.4017C11.0283 9.08168 11.2483 8.42166 11.7721 8.04414C12.2959 7.66663 12.9916 7.66663 14.383 7.66663H31.617C33.0084 7.66663 33.7041 7.66663 34.2279 8.04414C34.7517 8.42166 34.9717 9.08168 35.4117 10.4017L37.9893 18.1344C38.1576 18.6394 38.2417 18.8919 38.1971 19.1423C38.1524 19.3928 37.9861 19.6006 37.6536 20.0163L23 38.3333ZM23 38.3333L29.7083 17.25M23 38.3333L16.2917 17.25M37.375 19.1666L29.7083 17.25M29.7083 17.25L26.8333 9.58329M29.7083 17.25H16.2917M19.1667 9.58329L16.2917 17.25M16.2917 17.25L8.625 19.1666" stroke="white" stroke-width="2" stroke-linecap="round"/>
</svg>
