<svg width="100" height="100" viewBox="0 0 100 100" fill="none" xmlns="http://www.w3.org/2000/svg">
<path d="M35.4167 52.0834L64.5834 52.0834" stroke="white" stroke-width="2" stroke-linecap="round"/>
<path d="M35.4167 64.5834L52.0834 64.5834" stroke="white" stroke-width="2" stroke-linecap="round"/>
<path d="M22.9167 16.9834C22.9167 16.1433 22.9167 15.7233 23.0802 15.4024C23.224 15.1201 23.4535 14.8907 23.7357 14.7469C24.0566 14.5834 24.4766 14.5834 25.3167 14.5834H55.2559C55.6228 14.5834 55.8062 14.5834 55.9789 14.6248C56.1319 14.6616 56.2782 14.7222 56.4125 14.8044C56.5638 14.8972 56.6935 15.0269 56.953 15.2863L76.3804 34.7138C76.6398 34.9732 76.7696 35.1029 76.8623 35.2543C76.9446 35.3885 77.0052 35.5348 77.0419 35.6879C77.0834 35.8605 77.0834 36.0439 77.0834 36.4108V83.0167C77.0834 83.8568 77.0834 84.2768 76.9199 84.5977C76.7761 84.8799 76.5466 85.1094 76.2643 85.2532C75.9435 85.4167 75.5234 85.4167 74.6834 85.4167H25.3167C24.4766 85.4167 24.0566 85.4167 23.7357 85.2532C23.4535 85.1094 23.224 84.8799 23.0802 84.5977C22.9167 84.2768 22.9167 83.8568 22.9167 83.0167V16.9834Z" stroke="white" stroke-width="2"/>
<path d="M52.0833 14.5834V37.1834C52.0833 38.0235 52.0833 38.4435 52.2468 38.7644C52.3906 39.0466 52.6201 39.2761 52.9023 39.4199C53.2232 39.5834 53.6432 39.5834 54.4833 39.5834H77.0833" stroke="white" stroke-width="2"/>
</svg>
