<svg width="304" height="93" viewBox="0 0 304 93" fill="none" xmlns="http://www.w3.org/2000/svg">
<g clip-path="url(#clip0_75_22)">
<path d="M48.1607 46.5C48.1607 26.7093 60.5928 9.77829 78.0536 3.0773C72.8921 1.09607 67.2971 0 61.4464 0C35.8067 0 14.9464 20.8602 14.9464 46.5C14.9464 72.1398 35.8067 93 61.4464 93C67.2971 93 72.8921 91.9039 78.0536 89.9227C60.5928 83.2217 48.1607 66.2907 48.1607 46.5Z" fill="#A5A5A4"/>
</g>
<path d="M139.25 24.476V58.266C139.25 61.2833 138.32 63.7427 136.46 65.644C134.6 67.504 132.079 68.434 128.896 68.434C125.548 68.434 122.903 67.4213 120.96 65.396C119.059 63.3293 118.108 60.498 118.108 56.902H120.898C120.898 59.5473 121.539 61.7173 122.82 63.412C124.101 65.1067 126.127 65.954 128.896 65.954C131.541 65.954 133.443 65.21 134.6 63.722C135.799 62.1927 136.398 60.374 136.398 58.266V24.476H139.25ZM148.047 46.3C148.047 42.0013 148.936 38.178 150.713 34.83C152.532 31.4407 155.012 28.7953 158.153 26.894C161.336 24.9927 164.891 24.042 168.817 24.042C173.777 24.042 177.952 25.1993 181.341 27.514C184.731 29.8287 187.211 33.0733 188.781 37.248H185.557C184.317 33.9413 182.251 31.3373 179.357 29.436C176.505 27.4933 172.992 26.522 168.817 26.522C165.469 26.522 162.431 27.328 159.703 28.94C156.975 30.5107 154.826 32.8047 153.255 35.822C151.685 38.798 150.899 42.2907 150.899 46.3C150.899 50.268 151.685 53.74 153.255 56.716C154.826 59.6507 156.975 61.924 159.703 63.536C162.431 65.148 165.469 65.954 168.817 65.954C172.992 65.954 176.505 65.0033 179.357 63.102C182.251 61.1593 184.317 58.5347 185.557 55.228H188.781C187.211 59.4027 184.731 62.6473 181.341 64.962C177.952 67.2767 173.777 68.434 168.817 68.434C164.891 68.434 161.336 67.504 158.153 65.644C155.012 63.7427 152.532 61.118 150.713 57.77C148.936 54.3807 148.047 50.5573 148.047 46.3ZM195.758 51.136C195.758 47.664 196.44 44.626 197.804 42.022C199.209 39.418 201.131 37.4133 203.57 36.008C206.05 34.6027 208.861 33.9 212.002 33.9C215.557 33.9 218.574 34.768 221.054 36.504C223.534 38.24 225.27 40.4513 226.262 43.138V34.334H229.052V68H226.262V59.134C225.27 61.862 223.513 64.1147 220.992 65.892C218.512 67.628 215.515 68.496 212.002 68.496C208.861 68.496 206.05 67.7933 203.57 66.388C201.131 64.9413 199.209 62.916 197.804 60.312C196.44 57.6667 195.758 54.608 195.758 51.136ZM226.262 51.136C226.262 48.2013 225.642 45.618 224.402 43.386C223.203 41.1127 221.55 39.3767 219.442 38.178C217.334 36.938 214.978 36.318 212.374 36.318C209.646 36.318 207.249 36.9173 205.182 38.116C203.115 39.2733 201.503 40.968 200.346 43.2C199.189 45.432 198.61 48.0773 198.61 51.136C198.61 54.1947 199.189 56.84 200.346 59.072C201.503 61.304 203.115 63.0193 205.182 64.218C207.29 65.4167 209.687 66.016 212.374 66.016C214.978 66.016 217.334 65.4167 219.442 64.218C221.591 62.978 223.265 61.242 224.464 59.01C225.663 56.7367 226.262 54.112 226.262 51.136ZM250.433 68.496C246.672 68.496 243.592 67.6693 241.195 66.016C238.839 64.3627 237.516 62.0067 237.227 58.948H240.079C240.286 61.1387 241.278 62.8747 243.055 64.156C244.874 65.4373 247.333 66.078 250.433 66.078C252.996 66.078 255.021 65.4373 256.509 64.156C258.038 62.8333 258.803 61.2213 258.803 59.32C258.803 57.9973 258.39 56.9227 257.563 56.096C256.778 55.228 255.786 54.5667 254.587 54.112C253.388 53.6573 251.756 53.1613 249.689 52.624C247.209 51.9627 245.204 51.322 243.675 50.702C242.146 50.0407 240.844 49.0693 239.769 47.788C238.694 46.5067 238.157 44.7913 238.157 42.642C238.157 41.0713 238.632 39.6247 239.583 38.302C240.534 36.938 241.856 35.8633 243.551 35.078C245.246 34.2927 247.168 33.9 249.317 33.9C252.83 33.9 255.662 34.7887 257.811 36.566C260.002 38.302 261.18 40.72 261.345 43.82H258.555C258.431 41.588 257.563 39.7693 255.951 38.364C254.339 36.9587 252.107 36.256 249.255 36.256C246.858 36.256 244.874 36.876 243.303 38.116C241.732 39.356 240.947 40.8647 240.947 42.642C240.947 44.2127 241.381 45.494 242.249 46.486C243.158 47.4367 244.254 48.1807 245.535 48.718C246.858 49.214 248.594 49.7513 250.743 50.33C253.099 50.95 254.98 51.57 256.385 52.19C257.832 52.7687 259.051 53.6367 260.043 54.794C261.035 55.91 261.531 57.4187 261.531 59.32C261.531 61.056 261.056 62.6267 260.105 64.032C259.154 65.4373 257.832 66.5327 256.137 67.318C254.442 68.1033 252.541 68.496 250.433 68.496ZM285.281 33.652C289.249 33.652 292.494 34.892 295.015 37.372C297.537 39.8107 298.797 43.448 298.797 48.284V68H296.069V48.47C296.069 44.4607 295.057 41.402 293.031 39.294C291.006 37.1447 288.257 36.07 284.785 36.07C281.148 36.07 278.234 37.2273 276.043 39.542C273.894 41.8567 272.819 45.2873 272.819 49.834V68H270.029V22.12H272.819V41.464C273.77 38.9427 275.361 37.0207 277.593 35.698C279.825 34.334 282.388 33.652 285.281 33.652Z" fill="white"/>
<defs>
<clipPath id="clip0_75_22">
<rect width="93" height="93" fill="white"/>
</clipPath>
</defs>
</svg>
