<svg width="46" height="46" viewBox="0 0 46 46" fill="none" xmlns="http://www.w3.org/2000/svg">
<path d="M3.83334 15.3333L3.12623 14.6262L2.41912 15.3333L3.12623 16.0404L3.83334 15.3333ZM23 16.3333C23.5523 16.3333 24 15.8856 24 15.3333C24 14.781 23.5523 14.3333 23 14.3333L23 16.3333ZM10.7929 6.95952L3.12623 14.6262L4.54044 16.0404L12.2071 8.37373L10.7929 6.95952ZM3.12623 16.0404L10.7929 23.7071L12.2071 22.2929L4.54044 14.6262L3.12623 16.0404ZM3.83334 16.3333L23 16.3333L23 14.3333L3.83334 14.3333L3.83334 16.3333Z" fill="white"/>
<path d="M42.1667 30.6667L42.8738 29.9596L43.5809 30.6667L42.8738 31.3738L42.1667 30.6667ZM5.75001 31.6667C5.19772 31.6667 4.75001 31.219 4.75001 30.6667C4.75001 30.1144 5.19772 29.6667 5.75001 29.6667L5.75001 31.6667ZM35.2071 22.2929L42.8738 29.9596L41.4596 31.3738L33.7929 23.7071L35.2071 22.2929ZM42.8738 31.3738L35.2071 39.0404L33.7929 37.6262L41.4596 29.9596L42.8738 31.3738ZM42.1667 31.6667L5.75001 31.6667L5.75001 29.6667L42.1667 29.6667L42.1667 31.6667Z" fill="white"/>
</svg>
