<svg width="46" height="46" viewBox="0 0 46 46" fill="none" xmlns="http://www.w3.org/2000/svg">
<path d="M27.0134 5.63437H26.5134V5.6593L26.5159 5.68412L27.0134 5.63437ZM27.0134 5.63435H27.5134V5.60941L27.511 5.5846L27.0134 5.63435ZM27.2608 8.10804L27.7583 8.05829L27.2608 8.10804ZM28.0586 10.7873L28.25 10.3254L28.25 10.3254L28.0586 10.7873ZM30.5174 9.45695L30.2007 9.06997L30.5174 9.45695ZM32.4414 7.88274L32.1248 7.49576V7.49576L32.4414 7.88274ZM33.8249 7.08487L33.8498 6.58549L33.8249 7.08487ZM35.1221 8.01644L34.7685 8.36999V8.36999L35.1221 8.01644ZM37.9835 10.8779L38.3371 10.5243L37.9835 10.8779ZM38.9151 12.1751L39.4145 12.1502L39.4145 12.1502L38.9151 12.1751ZM38.1172 13.5586L38.5042 13.8752L38.1172 13.5586ZM36.543 15.4827L36.156 15.1661L36.543 15.4827ZM35.2126 17.9414L34.7507 18.1327V18.1327L35.2126 17.9414ZM37.8919 18.7392L37.8421 19.2367L37.8919 18.7392ZM40.3657 18.9866L40.4154 18.4891H40.4154L40.3657 18.9866ZM41.9081 19.4007L41.5374 19.7362L41.5374 19.7362L41.9081 19.4007ZM41.9081 26.5994L41.5374 26.2639L41.5374 26.2639L41.9081 26.5994ZM40.3657 27.0135L40.4154 27.511H40.4154L40.3657 27.0135ZM37.8926 27.2608L37.9424 27.7583L37.8926 27.2608ZM35.2133 28.0586L34.7514 27.8673V27.8673L35.2133 28.0586ZM36.5437 30.5173L36.9307 30.2007L36.5437 30.5173ZM38.1173 32.4406L37.7303 32.7573L38.1173 32.4406ZM38.9152 33.8241L39.4146 33.849L39.4146 33.849L38.9152 33.8241ZM35.1222 37.9828L35.4757 38.3363L35.1222 37.9828ZM33.8249 38.9144L33.8498 39.4137H33.8499L33.8249 38.9144ZM32.4415 38.1165L32.7581 37.7295V37.7295L32.4415 38.1165ZM30.5174 36.5423L30.1639 36.8958L30.1815 36.9135L30.2008 36.9293L30.5174 36.5423ZM30.5174 36.5423L30.871 36.1887L30.8533 36.1711L30.834 36.1553L30.5174 36.5423ZM28.0587 35.2119L28.2501 35.6738L28.2501 35.6738L28.0587 35.2119ZM27.2609 37.8912L26.7634 37.8414V37.8414L27.2609 37.8912ZM27.0134 40.3657L27.511 40.4155L27.0134 40.3657ZM26.5994 41.9082L26.2639 41.5374L26.2638 41.5374L26.5994 41.9082ZM19.4006 41.9082L19.7362 41.5374L19.7361 41.5374L19.4006 41.9082ZM18.9866 40.3657L18.489 40.4155L18.9866 40.3657ZM18.7392 37.8919L19.2367 37.8422V37.8422L18.7392 37.8919ZM17.9413 35.2127L18.1327 34.7507L18.1327 34.7507L17.9413 35.2127ZM15.4826 36.543L15.7993 36.93L15.4826 36.543ZM13.5585 38.1174L13.2418 37.7304V37.7304L13.5585 38.1174ZM12.175 38.9152L12.1501 39.4146H12.1501L12.175 38.9152ZM10.8778 37.9837L11.2313 37.6301L10.8778 37.9837ZM8.01631 35.1222L7.66276 35.4758L8.01631 35.1222ZM7.08474 33.825L6.58536 33.8499L7.08474 33.825ZM7.88261 32.4415L8.26959 32.7581L7.88261 32.4415ZM9.45689 30.5174L9.84387 30.834L9.45689 30.5174ZM10.7873 28.0587L10.3253 28.25V28.25L10.7873 28.0587ZM8.10799 27.2608L8.05824 27.7584L8.10799 27.2608ZM5.63433 27.0135L5.68408 26.516L5.65927 26.5135H5.63433V27.0135ZM5.63431 27.0135L5.58456 27.511L5.60937 27.5135H5.63431V27.0135ZM4.09188 26.5994L4.46261 26.2639H4.46261L4.09188 26.5994ZM3.83334 25.0234H3.33334H3.83334ZM3.83334 20.9767H4.33334H3.83334ZM4.09188 19.4007L4.46261 19.7362L4.09188 19.4007ZM5.63431 18.9866V18.4866H5.60937L5.58456 18.4891L5.63431 18.9866ZM5.63433 18.9866V19.4866H5.65927L5.68408 19.4841L5.63433 18.9866ZM8.10871 18.7392L8.15846 19.2367H8.15846L8.10871 18.7392ZM10.788 17.9413L10.3261 17.75V17.75L10.788 17.9413ZM9.45761 15.4826L9.84459 15.166L9.45761 15.4826ZM7.8827 13.5577L8.26968 13.2411L7.8827 13.5577ZM7.08483 12.1742L6.58545 12.1493L7.08483 12.1742ZM8.0164 10.877L8.36995 11.2306V11.2306L8.0164 10.877ZM10.8779 8.01557L10.5243 7.66202H10.5243L10.8779 8.01557ZM12.1751 7.084L12.2 7.58338H12.2L12.1751 7.084ZM13.5586 7.88187L13.8752 7.49489L13.5586 7.88187ZM15.4827 9.4562L15.7993 9.06922L15.4827 9.4562ZM17.9414 10.7866L17.7501 10.3246L17.7501 10.3246L17.9414 10.7866ZM18.7393 8.10729L19.2368 8.15704V8.15704L18.7393 8.10729ZM18.9866 5.63437L19.4841 5.68412L19.4866 5.6593V5.63437H18.9866ZM18.9866 5.63435L18.489 5.58459L18.4866 5.60941V5.63435H18.9866ZM19.4006 4.09192L19.7362 4.46265L19.4006 4.09192ZM26.5994 4.09192L26.2639 4.46265L26.5994 4.09192ZM27.5134 5.63437V5.63435H26.5134V5.63437H27.5134ZM27.7583 8.05829L27.511 5.58461L26.5159 5.68412L26.7633 8.15779L27.7583 8.05829ZM28.25 10.3254C28.1987 10.3042 28.0971 10.2442 27.9986 9.85241C27.8998 9.45986 27.8417 8.89196 27.7583 8.05829L26.7633 8.15779C26.8433 8.95766 26.9077 9.61491 27.0288 10.0964C27.1501 10.5786 27.3657 11.0415 27.8673 11.2493L28.25 10.3254ZM30.2007 9.06997C29.5523 9.60051 29.1096 9.96098 28.7622 10.1687C28.4154 10.3761 28.3012 10.3466 28.25 10.3254L27.8673 11.2493C28.3689 11.457 28.8487 11.2822 29.2754 11.027C29.7015 10.7722 30.2118 10.353 30.834 9.84393L30.2007 9.06997ZM32.1248 7.49576L30.2007 9.06997L30.834 9.84393L32.758 8.26972L32.1248 7.49576ZM33.8498 6.58549C33.5162 6.56885 33.2342 6.68573 32.9739 6.84806C32.7257 7.00284 32.4473 7.23187 32.1248 7.49576L32.758 8.26972C33.1012 7.9889 33.3222 7.80939 33.503 7.69661C33.6718 7.59139 33.7487 7.58169 33.7999 7.58424L33.8498 6.58549ZM35.4756 7.66289C35.181 7.36821 34.9267 7.11262 34.6951 6.93391C34.4523 6.74648 34.1834 6.60212 33.8498 6.58549L33.7999 7.58424C33.8512 7.5868 33.9268 7.6041 34.0842 7.7256C34.253 7.85582 34.4549 8.05641 34.7685 8.36999L35.4756 7.66289ZM38.3371 10.5243L35.4756 7.66289L34.7685 8.36999L37.63 11.2315L38.3371 10.5243ZM39.4145 12.1502C39.3979 11.8166 39.2535 11.5477 39.0661 11.3048C38.8874 11.0732 38.6318 10.819 38.3371 10.5243L37.63 11.2315C37.9436 11.545 38.1442 11.747 38.2744 11.9158C38.3959 12.0732 38.4132 12.1488 38.4157 12.2L39.4145 12.1502ZM38.5042 13.8752C38.7681 13.5527 38.9971 13.2743 39.1519 13.0261C39.3142 12.7657 39.4311 12.4838 39.4145 12.1502L38.4157 12.2C38.4183 12.2513 38.4086 12.3282 38.3034 12.497C38.1906 12.6778 38.0111 12.8987 37.7303 13.242L38.5042 13.8752ZM36.93 15.7993L38.5042 13.8752L37.7303 13.242L36.156 15.1661L36.93 15.7993ZM35.6745 17.75C35.6533 17.6988 35.6238 17.5846 35.8312 17.2378C36.0389 16.8904 36.3994 16.4477 36.93 15.7993L36.156 15.1661C35.647 15.7882 35.2278 16.2985 34.973 16.7246C34.7178 17.1513 34.5429 17.6312 34.7507 18.1327L35.6745 17.75ZM37.9416 18.2417C37.108 18.1583 36.5401 18.1002 36.1475 18.0015C35.7557 17.9029 35.6958 17.8013 35.6745 17.75L34.7507 18.1327C34.9584 18.6343 35.4214 18.8499 35.9035 18.9712C36.385 19.0924 37.0423 19.1568 37.8421 19.2367L37.9416 18.2417ZM40.4154 18.4891L37.9416 18.2417L37.8421 19.2367L40.3159 19.4841L40.4154 18.4891ZM42.2788 19.0652C42.0547 18.8175 41.7727 18.7008 41.4739 18.6315C41.1889 18.5655 40.8301 18.5306 40.4154 18.4891L40.3159 19.4841C40.7572 19.5283 41.0403 19.5575 41.248 19.6057C41.4417 19.6506 41.503 19.6981 41.5374 19.7362L42.2788 19.0652ZM42.6667 20.9767C42.6667 20.5599 42.6676 20.1995 42.6302 19.9093C42.591 19.6051 42.503 19.3128 42.2788 19.0652L41.5374 19.7362C41.5718 19.7742 41.613 19.8399 41.6385 20.0372C41.6657 20.2486 41.6667 20.5332 41.6667 20.9767H42.6667ZM42.6667 25.0234V20.9767H41.6667V25.0234H42.6667ZM42.2788 26.9349C42.503 26.6872 42.591 26.395 42.6302 26.0907C42.6676 25.8006 42.6667 25.4401 42.6667 25.0234H41.6667C41.6667 25.4669 41.6657 25.7515 41.6385 25.9629C41.613 26.1602 41.5718 26.2258 41.5374 26.2639L42.2788 26.9349ZM40.4154 27.511C40.8301 27.4695 41.1889 27.4346 41.4739 27.3685C41.7727 27.2992 42.0547 27.1825 42.2788 26.9349L41.5374 26.2639C41.503 26.3019 41.4417 26.3495 41.248 26.3944C41.0403 26.4425 40.7572 26.4718 40.3159 26.516L40.4154 27.511ZM37.9424 27.7583L40.4154 27.511L40.3159 26.516L37.8429 26.7633L37.9424 27.7583ZM35.6753 28.25C35.6965 28.1987 35.7564 28.0971 36.1482 27.9985C36.5408 27.8998 37.1087 27.8417 37.9424 27.7583L37.8429 26.7633C37.043 26.8432 36.3857 26.9076 35.9043 27.0288C35.4221 27.1501 34.9591 27.3657 34.7514 27.8673L35.6753 28.25ZM36.9307 30.2007C36.4001 29.5523 36.0397 29.1096 35.8319 28.7622C35.6246 28.4154 35.654 28.3012 35.6753 28.25L34.7514 27.8673C34.5436 28.3688 34.7185 28.8487 34.9737 29.2754C35.2285 29.7015 35.6477 30.2118 36.1567 30.8339L36.9307 30.2007ZM38.5043 32.124L36.9307 30.2007L36.1567 30.8339L37.7303 32.7573L38.5043 32.124ZM39.4146 33.849C39.4312 33.5154 39.3143 33.2335 39.152 32.9732C38.9972 32.7249 38.7682 32.4466 38.5043 32.124L37.7303 32.7573C38.0112 33.1005 38.1907 33.3214 38.3034 33.5023C38.4087 33.671 38.4184 33.748 38.4158 33.7992L39.4146 33.849ZM38.3372 35.4749C38.6318 35.1802 38.8874 34.926 39.0662 34.6944C39.2536 34.4515 39.3979 34.1826 39.4146 33.849L38.4158 33.7992C38.4133 33.8505 38.396 33.926 38.2745 34.0835C38.1442 34.2522 37.9436 34.4542 37.6301 34.7678L38.3372 35.4749ZM35.4757 38.3363L38.3372 35.4749L37.6301 34.7678L34.7686 37.6292L35.4757 38.3363ZM33.8499 39.4137C34.1834 39.3971 34.4523 39.2528 34.6952 39.0653C34.9268 38.8866 35.181 38.631 35.4757 38.3363L34.7686 37.6292C34.455 37.9428 34.2531 38.1434 34.0843 38.2736C33.9269 38.3951 33.8513 38.4124 33.8 38.415L33.8499 39.4137ZM32.1249 38.5035C32.4474 38.7674 32.7258 38.9964 32.974 39.1512C33.2343 39.3135 33.5163 39.4304 33.8498 39.4137L33.8 38.415C33.7488 38.4175 33.6719 38.4078 33.5031 38.3026C33.3222 38.1898 33.1013 38.0103 32.7581 37.7295L32.1249 38.5035ZM30.2008 36.9293L32.1249 38.5035L32.7581 37.7295L30.8341 36.1553L30.2008 36.9293ZM30.1639 36.8958L30.1639 36.8958L30.871 36.1887L30.871 36.1887L30.1639 36.8958ZM28.2501 35.6738C28.3013 35.6526 28.4155 35.6231 28.7623 35.8305C29.1097 36.0382 29.5524 36.3987 30.2008 36.9292L30.834 36.1553C30.2119 35.6463 29.7016 35.227 29.2755 34.9722C28.8488 34.7171 28.3689 34.5422 27.8674 34.75L28.2501 35.6738ZM27.7584 37.9409C27.8418 37.1073 27.8999 36.5394 27.9987 36.1468C28.0972 35.755 28.1988 35.6951 28.2501 35.6738L27.8674 34.75C27.3658 34.9577 27.1502 35.4207 27.0289 35.9029C26.9077 36.3843 26.8434 37.0416 26.7634 37.8414L27.7584 37.9409ZM27.511 40.4155L27.7584 37.9409L26.7634 37.8414L26.5159 40.316L27.511 40.4155ZM26.9349 42.2789C27.1825 42.0548 27.2992 41.7728 27.3685 41.4739C27.4346 41.1889 27.4695 40.8301 27.511 40.4155L26.5159 40.316C26.4718 40.7572 26.4425 41.0404 26.3944 41.248C26.3494 41.4418 26.3019 41.503 26.2639 41.5374L26.9349 42.2789ZM25.0234 42.6667C25.4401 42.6667 25.8006 42.6677 26.0907 42.6303C26.395 42.5911 26.6872 42.503 26.9349 42.2789L26.2638 41.5374C26.2258 41.5719 26.1601 41.6131 25.9629 41.6385C25.7515 41.6657 25.4668 41.6667 25.0234 41.6667V42.6667ZM20.9766 42.6667H25.0234V41.6667H20.9766V42.6667ZM19.0651 42.2789C19.3128 42.503 19.605 42.5911 19.9093 42.6303C20.1994 42.6677 20.5599 42.6667 20.9766 42.6667V41.6667C20.5332 41.6667 20.2485 41.6657 20.0371 41.6385C19.8399 41.6131 19.7742 41.5719 19.7362 41.5374L19.0651 42.2789ZM18.489 40.4155C18.5305 40.8301 18.5654 41.1889 18.6315 41.4739C18.7008 41.7728 18.8175 42.0548 19.0651 42.2789L19.7361 41.5374C19.6981 41.503 19.6506 41.4418 19.6056 41.248C19.5575 41.0404 19.5282 40.7572 19.4841 40.316L18.489 40.4155ZM18.2417 37.9417L18.489 40.4155L19.4841 40.316L19.2367 37.8422L18.2417 37.9417ZM17.75 35.6746C17.8013 35.6958 17.9028 35.7557 18.0014 36.1476C18.1002 36.5401 18.1583 37.108 18.2417 37.9417L19.2367 37.8422C19.1567 37.0423 19.0923 36.3851 18.9712 35.9036C18.8499 35.4214 18.6342 34.9585 18.1327 34.7507L17.75 35.6746ZM15.7993 36.93C16.4477 36.3995 16.8904 36.039 17.2378 35.8313C17.5845 35.6239 17.6987 35.6534 17.75 35.6746L18.1327 34.7507C17.6311 34.543 17.1513 34.7178 16.7245 34.973C16.2985 35.2278 15.7882 35.647 15.166 36.1561L15.7993 36.93ZM13.8751 38.5043L15.7993 36.93L15.166 36.1561L13.2418 37.7304L13.8751 38.5043ZM12.1501 39.4146C12.4837 39.4313 12.7656 39.3144 13.0259 39.152C13.2742 38.9973 13.5525 38.7682 13.8751 38.5043L13.2418 37.7304C12.8986 38.0112 12.6777 38.1907 12.4968 38.3035C12.3281 38.4087 12.2511 38.4184 12.1999 38.4159L12.1501 39.4146ZM10.5242 38.3372C10.8189 38.6319 11.0731 38.8875 11.3047 39.0662C11.5476 39.2536 11.8165 39.398 12.1501 39.4146L12.1999 38.4159C12.1487 38.4133 12.0731 38.396 11.9156 38.2745C11.7469 38.1443 11.5449 37.9437 11.2313 37.6301L10.5242 38.3372ZM7.66276 35.4758L10.5242 38.3372L11.2313 37.6301L8.36987 34.7686L7.66276 35.4758ZM6.58536 33.8499C6.602 34.1835 6.74636 34.4524 6.93378 34.6953C7.11249 34.9269 7.36809 35.1811 7.66276 35.4758L8.36987 34.7686C8.05629 34.4551 7.85569 34.2531 7.72547 34.0843C7.60398 33.9269 7.58667 33.8513 7.58412 33.8001L6.58536 33.8499ZM7.49563 32.1249C7.23174 32.4474 7.00271 32.7258 6.84794 32.974C6.68561 33.2344 6.56872 33.5163 6.58536 33.8499L7.58412 33.8001C7.58156 33.7488 7.59126 33.6719 7.69649 33.5032C7.80927 33.3223 7.98877 33.1014 8.26959 32.7581L7.49563 32.1249ZM9.06992 30.2008L7.49563 32.1249L8.26959 32.7581L9.84387 30.834L9.06992 30.2008ZM10.3253 28.25C10.3466 28.3013 10.376 28.4155 10.1687 28.7623C9.96093 29.1097 9.60046 29.5523 9.06992 30.2008L9.84387 30.834C10.3529 30.2119 10.7721 29.7016 11.0269 29.2755C11.2821 28.8488 11.457 28.3689 11.2492 27.8673L10.3253 28.25ZM8.05824 27.7584C8.89191 27.8417 9.45981 27.8998 9.85235 27.9986C10.2442 28.0972 10.3041 28.1988 10.3253 28.25L11.2492 27.8673C11.0415 27.3658 10.5785 27.1501 10.0963 27.0288C9.61486 26.9077 8.95761 26.8433 8.15774 26.7633L8.05824 27.7584ZM5.58458 27.511L8.05824 27.7584L8.15774 26.7633L5.68408 26.516L5.58458 27.511ZM5.63431 27.5135H5.63433V26.5135H5.63431V27.5135ZM3.72116 26.9349C3.94527 27.1825 4.22728 27.2992 4.52614 27.3685C4.8111 27.4346 5.1699 27.4695 5.58456 27.511L5.68406 26.516C5.2428 26.4718 4.95966 26.4425 4.75202 26.3944C4.55829 26.3495 4.49704 26.3019 4.46261 26.2639L3.72116 26.9349ZM3.33334 25.0234C3.33334 25.4401 3.33236 25.8006 3.36976 26.0907C3.40897 26.395 3.49704 26.6872 3.72116 26.9349L4.46261 26.2639C4.42818 26.2258 4.38697 26.1602 4.36155 25.9629C4.33431 25.7515 4.33334 25.4669 4.33334 25.0234H3.33334ZM3.33334 20.9767L3.33334 25.0234H4.33334L4.33334 20.9767H3.33334ZM3.72116 19.0652C3.49704 19.3128 3.40897 19.6051 3.36976 19.9093C3.33236 20.1995 3.33334 20.5599 3.33334 20.9767H4.33334C4.33334 20.5332 4.33431 20.2486 4.36155 20.0372C4.38697 19.8399 4.42818 19.7742 4.46261 19.7362L3.72116 19.0652ZM5.58456 18.4891C5.1699 18.5306 4.8111 18.5655 4.52614 18.6315C4.22728 18.7008 3.94527 18.8175 3.72116 19.0652L4.46261 19.7362C4.49704 19.6981 4.55829 19.6506 4.75202 19.6057C4.95966 19.5575 5.2428 19.5283 5.68406 19.4841L5.58456 18.4891ZM5.63433 18.4866H5.63431V19.4866H5.63433V18.4866ZM8.05896 18.2417L5.58458 18.4891L5.68408 19.4841L8.15846 19.2367L8.05896 18.2417ZM10.3261 17.75C10.3048 17.8012 10.2449 17.9028 9.85307 18.0014C9.46053 18.1002 8.89263 18.1583 8.05896 18.2417L8.15846 19.2367C8.95833 19.1567 9.61558 19.0923 10.097 18.9712C10.5792 18.8499 11.0422 18.6342 11.2499 18.1327L10.3261 17.75ZM9.07064 15.7992C9.60118 16.4477 9.96165 16.8903 10.1694 17.2378C10.3768 17.5845 10.3473 17.6987 10.3261 17.75L11.2499 18.1327C11.4577 17.6311 11.2828 17.1512 11.0276 16.7245C10.7728 16.2984 10.3536 15.7881 9.84459 15.166L9.07064 15.7992ZM7.49572 13.8743L9.07064 15.7992L9.84459 15.166L8.26968 13.2411L7.49572 13.8743ZM6.58545 12.1493C6.56881 12.4829 6.68569 12.7649 6.84802 13.0252C7.0028 13.2734 7.23183 13.5518 7.49572 13.8743L8.26968 13.2411C7.98886 12.8979 7.80935 12.677 7.69657 12.4961C7.59135 12.3273 7.58165 12.2504 7.58421 12.1992L6.58545 12.1493ZM7.66285 10.5235C7.36817 10.8182 7.11258 11.0724 6.93387 11.304C6.74644 11.5469 6.60209 11.8158 6.58545 12.1493L7.58421 12.1992C7.58676 12.1479 7.60406 12.0723 7.72556 11.9149C7.85578 11.7461 8.05638 11.5442 8.36995 11.2306L7.66285 10.5235ZM10.5243 7.66202L7.66285 10.5235L8.36995 11.2306L11.2314 8.36912L10.5243 7.66202ZM12.1502 6.58462C11.8166 6.60126 11.5477 6.74561 11.3048 6.93304C11.0732 7.11175 10.819 7.36734 10.5243 7.66202L11.2314 8.36913C11.545 8.05555 11.747 7.85495 11.9157 7.72473C12.0732 7.60324 12.1487 7.58593 12.2 7.58338L12.1502 6.58462ZM13.8752 7.49489C13.5526 7.231 13.2742 7.00197 13.026 6.84719C12.7657 6.68486 12.4838 6.56798 12.1502 6.58462L12.2 7.58338C12.2512 7.58082 12.3282 7.59052 12.4969 7.69575C12.6778 7.80853 12.8987 7.98803 13.2419 8.26885L13.8752 7.49489ZM15.7993 9.06922L13.8752 7.49489L13.2419 8.26885L15.1661 9.84318L15.7993 9.06922ZM17.7501 10.3246C17.6988 10.3459 17.5846 10.3753 17.2379 10.168C16.8905 9.96023 16.4478 9.59976 15.7993 9.06922L15.1661 9.84318C15.7883 10.3522 16.2985 10.7714 16.7246 11.0262C17.1514 11.2814 17.6312 11.4563 18.1328 11.2485L17.7501 10.3246ZM18.2418 8.05754C18.1584 8.89121 18.1003 9.45911 18.0015 9.85165C17.9029 10.2435 17.8013 10.3034 17.7501 10.3246L18.1328 11.2485C18.6343 11.0408 18.85 10.5778 18.9713 10.0956C19.0924 9.61416 19.1568 8.95691 19.2368 8.15704L18.2418 8.05754ZM18.489 5.58461L18.2418 8.05754L19.2368 8.15704L19.4841 5.68412L18.489 5.58461ZM18.4866 5.63435V5.63437H19.4866V5.63435H18.4866ZM19.0651 3.72119C18.8175 3.94531 18.7008 4.22731 18.6315 4.52618C18.5654 4.81114 18.5305 5.16994 18.489 5.58459L19.4841 5.6841C19.5282 5.24284 19.5575 4.9597 19.6056 4.75206C19.6506 4.55833 19.6981 4.49708 19.7362 4.46265L19.0651 3.72119ZM20.9766 3.33337C20.5599 3.33337 20.1994 3.3324 19.9093 3.36979C19.605 3.40901 19.3128 3.49708 19.0651 3.72119L19.7362 4.46265C19.7742 4.42822 19.8399 4.38701 20.0371 4.36159C20.2485 4.33435 20.5332 4.33337 20.9766 4.33337V3.33337ZM25.0234 3.33337H20.9766V4.33337H25.0234V3.33337ZM26.9349 3.72119C26.6872 3.49708 26.395 3.40901 26.0907 3.36979C25.8006 3.3324 25.4401 3.33337 25.0234 3.33337V4.33337C25.4668 4.33337 25.7515 4.33435 25.9629 4.36159C26.1601 4.38701 26.2258 4.42822 26.2639 4.46265L26.9349 3.72119ZM27.511 5.5846C27.4695 5.16994 27.4346 4.81114 27.3685 4.52618C27.2992 4.22732 27.1825 3.94531 26.9349 3.72119L26.2639 4.46265C26.3019 4.49708 26.3494 4.55833 26.3944 4.75206C26.4425 4.9597 26.4718 5.24284 26.5159 5.6841L27.511 5.5846ZM30.1667 23C30.1667 26.9581 26.958 30.1667 23 30.1667V31.1667C27.5103 31.1667 31.1667 27.5104 31.1667 23H30.1667ZM23 15.8334C26.958 15.8334 30.1667 19.042 30.1667 23H31.1667C31.1667 18.4897 27.5103 14.8334 23 14.8334V15.8334ZM15.8333 23C15.8333 19.042 19.042 15.8334 23 15.8334V14.8334C18.4897 14.8334 14.8333 18.4897 14.8333 23H15.8333ZM23 30.1667C19.042 30.1667 15.8333 26.9581 15.8333 23H14.8333C14.8333 27.5104 18.4897 31.1667 23 31.1667V30.1667Z" fill="white"/>
</svg>
