<svg width="100" height="100" viewBox="0 0 100 100" fill="none" xmlns="http://www.w3.org/2000/svg">
<path d="M12.5 27.0833V22.6667C12.5 19.8382 12.5 18.424 13.3787 17.5453C14.2574 16.6667 15.6716 16.6667 18.5 16.6667L82.3333 16.6667C82.8047 16.6667 83.0404 16.6667 83.1869 16.8131C83.3333 16.9596 83.3333 17.1953 83.3333 17.6667V31.5C83.3333 34.3284 83.3333 35.7426 82.4547 36.6213C81.576 37.5 80.1618 37.5 77.3333 37.5L62.5 37.5M12.5 27.0833V31.5C12.5 34.3284 12.5 35.7426 13.3787 36.6213C14.2574 37.5 15.6716 37.5 18.5 37.5L85.5 37.5C86.4428 37.5 86.9142 37.5 87.2071 37.7929C87.5 38.0858 87.5 38.5572 87.5 39.5L87.5 54.1667L87.5 70.8333L87.5 85.5C87.5 86.4428 87.5 86.9142 87.2071 87.2071C86.9142 87.5 86.4428 87.5 85.5 87.5L16.5 87.5C14.6144 87.5 13.6716 87.5 13.0858 86.9142C12.5 86.3284 12.5 85.3856 12.5 83.5L12.5 27.0833Z" stroke="white" stroke-width="2"/>
<path d="M87.5 70.8334H64.5C63.5572 70.8334 63.0858 70.8334 62.7929 70.5405C62.5 70.2476 62.5 69.7762 62.5 68.8334V56.1667C62.5 55.2239 62.5 54.7525 62.7929 54.4596C63.0858 54.1667 63.5572 54.1667 64.5 54.1667H87.5" stroke="white" stroke-width="2"/>
</svg>
